<svg width="84" height="87" viewBox="0 0 84 87" fill="none" xmlns="http://www.w3.org/2000/svg">
<path fill-rule="evenodd" clip-rule="evenodd" d="M30 0C13.4315 0 0 13.4315 0 30V57V62V75C0 81.6274 5.37258 87 12 87C18.6274 87 24 81.6274 24 75V57C24 50.3726 18.6274 45 12 45C11.3186 45 10.6504 45.0568 10 45.1659V30C10 18.9543 18.9543 10 30 10H54C65.0457 10 74 18.9543 74 30V45.1659C73.3496 45.0568 72.6814 45 72 45C65.3726 45 60 50.3726 60 57V75C60 81.6274 65.3726 87 72 87C78.6274 87 84 81.6274 84 75V62V57V30C84 13.4315 70.5685 0 54 0H30Z" fill="#FF00D6"/>
<line x1="34" y1="73.3396" x2="49.0934" y2="58.2462" stroke="#FF0000" stroke-width="2" stroke-linecap="round"/>
<line x1="35.4142" y1="58.2462" x2="50.5076" y2="73.3396" stroke="#FF0000" stroke-width="2" stroke-linecap="round"/>
</svg>
