<svg width="110" height="111" viewBox="0 0 110 111" fill="none" xmlns="http://www.w3.org/2000/svg">
<path fill-rule="evenodd" clip-rule="evenodd" d="M14.3221 2.84015C11.2159 -0.301912 6.15066 -0.330965 3.0086 2.77526C-0.133463 5.88148 -0.162516 10.9467 2.94371 14.0888L43.7352 55.3509L2.47308 96.1423C-0.668985 99.2485 -0.698038 104.314 2.40819 107.456C5.51441 110.598 10.5796 110.627 13.7217 107.521L54.9838 66.7293L95.7753 107.991C98.8815 111.133 103.947 111.162 107.089 108.056C110.231 104.95 110.26 99.8848 107.154 96.7427L66.3622 55.4806L107.624 14.6892C110.766 11.583 110.795 6.51773 107.689 3.37567C104.583 0.23361 99.5177 0.204552 96.3757 3.31078L55.1136 44.1022L14.3221 2.84015Z" fill="#FF00D6"/>
</svg>
