<svg width="96" height="96" viewBox="0 0 96 96" fill="none" xmlns="http://www.w3.org/2000/svg">
<path d="M44.282 52V43.2727H46.1271V46.8736H49.8729V43.2727H51.7138V52H49.8729V48.3949H46.1271V52H44.282Z" fill="white"/>
<path d="M44.282 52H41.282V55H44.282V52ZM44.282 43.2727V40.2727H41.282V43.2727H44.282ZM46.1271 43.2727H49.1271V40.2727H46.1271V43.2727ZM46.1271 46.8736H43.1271V49.8736H46.1271V46.8736ZM49.8729 46.8736V49.8736H52.8729V46.8736H49.8729ZM49.8729 43.2727V40.2727H46.8729V43.2727H49.8729ZM51.7138 43.2727H54.7138V40.2727H51.7138V43.2727ZM51.7138 52V55H54.7138V52H51.7138ZM49.8729 52H46.8729V55H49.8729V52ZM49.8729 48.3949H52.8729V45.3949H49.8729V48.3949ZM46.1271 48.3949V45.3949H43.1271V48.3949H46.1271ZM46.1271 52V55H49.1271V52H46.1271ZM47.282 52V43.2727H41.282V52H47.282ZM44.282 46.2727H46.1271V40.2727H44.282V46.2727ZM43.1271 43.2727V46.8736H49.1271V43.2727H43.1271ZM46.1271 49.8736H49.8729V43.8736H46.1271V49.8736ZM52.8729 46.8736V43.2727H46.8729V46.8736H52.8729ZM49.8729 46.2727H51.7138V40.2727H49.8729V46.2727ZM48.7138 43.2727V52H54.7138V43.2727H48.7138ZM51.7138 49H49.8729V55H51.7138V49ZM52.8729 52V48.3949H46.8729V52H52.8729ZM49.8729 45.3949H46.1271V51.3949H49.8729V45.3949ZM43.1271 48.3949V52H49.1271V48.3949H43.1271ZM46.1271 49H44.282V55H46.1271V49Z" fill="#FF00D6"/>
</svg>
