<svg width="20" height="38" viewBox="0 0 20 38" fill="none" xmlns="http://www.w3.org/2000/svg">
<path fill-rule="evenodd" clip-rule="evenodd" d="M10 0C6.68629 0 4 2.68629 4 6V18C4 21.3137 6.68629 24 10 24C13.3137 24 16 21.3137 16 18V6C16 2.68629 13.3137 0 10 0ZM2 11C2 10.4477 1.55228 10 1 10C0.447715 10 0 10.4477 0 11V18C0 23.1853 3.94668 27.4489 9 27.9506V36H3C2.44772 36 2 36.4477 2 37C2 37.5523 2.44772 38 3 38H17C17.5523 38 18 37.5523 18 37C18 36.4477 17.5523 36 17 36H11V27.9506C16.0533 27.4489 20 23.1853 20 18V11C20 10.4477 19.5523 10 19 10C18.4477 10 18 10.4477 18 11V18C18 22.4183 14.4183 26 10 26C5.58172 26 2 22.4183 2 18V11Z" fill="#FF00D6"/>
</svg>
