<svg width="84" height="87" viewBox="0 0 84 87" fill="none" xmlns="http://www.w3.org/2000/svg">
<path fill-rule="evenodd" clip-rule="evenodd" d="M30 0C13.4315 0 0 13.4315 0 30V57V62V75C0 81.6274 5.37258 87 12 87C18.6274 87 24 81.6274 24 75V57C24 50.3726 18.6274 45 12 45C11.3186 45 10.6504 45.0568 10 45.1659V30C10 18.9543 18.9543 10 30 10H54C65.0457 10 74 18.9543 74 30V45.1659C73.3496 45.0568 72.6814 45 72 45C65.3726 45 60 50.3726 60 57V75C60 81.6274 65.3726 87 72 87C78.6274 87 84 81.6274 84 75V62V57V30C84 13.4315 70.5685 0 54 0H30ZM32 72.5C32 71.6716 32.6716 71 33.5 71H51.5C52.3284 71 53 71.6716 53 72.5C53 73.3284 52.3284 74 51.5 74H33.5C32.6716 74 32 73.3284 32 72.5ZM33.5 59C32.6716 59 32 59.6716 32 60.5C32 61.3284 32.6716 62 33.5 62H51.5C52.3284 62 53 61.3284 53 60.5C53 59.6716 52.3284 59 51.5 59H33.5Z" fill="#FF00D6"/>
</svg>
