<svg width="8" height="5" viewBox="0 0 8 5" fill="none" xmlns="http://www.w3.org/2000/svg">
<path fill-rule="evenodd" clip-rule="evenodd" d="M3.5 0C3.22386 0 3 0.223858 3 0.5C3 0.776142 3.22386 1 3.5 1H7.5C7.77614 1 8 0.776142 8 0.5C8 0.223858 7.77614 0 7.5 0H3.5ZM1.48145 0.0606384C1.2053 0.0606384 0.981445 0.284496 0.981445 0.560638C0.981445 0.836781 1.2053 1.06064 1.48145 1.06064H1.50356C1.7797 1.06064 2.00356 0.836781 2.00356 0.560638C2.00356 0.284496 1.7797 0.0606384 1.50356 0.0606384H1.48145ZM1.5 2C1.22386 2 1 2.22386 1 2.5C1 2.77614 1.22386 3 1.5 3H1.52211C1.79826 3 2.02211 2.77614 2.02211 2.5C2.02211 2.22386 1.79826 2 1.52211 2H1.5ZM1 4.5C1 4.22386 1.22386 4 1.5 4H1.52211C1.79826 4 2.02211 4.22386 2.02211 4.5C2.02211 4.77614 1.79826 5 1.52211 5H1.5C1.22386 5 1 4.77614 1 4.5ZM3 2.5C3 2.22386 3.22386 2 3.5 2H7.5C7.77614 2 8 2.22386 8 2.5C8 2.77614 7.77614 3 7.5 3H3.5C3.22386 3 3 2.77614 3 2.5ZM3.5 4C3.22386 4 3 4.22386 3 4.5C3 4.77614 3.22386 5 3.5 5H7.5C7.77614 5 8 4.77614 8 4.5C8 4.22386 7.77614 4 7.5 4H3.5Z" fill="#FF00D6"/>
</svg>
