<svg width="77" height="79" viewBox="0 0 77 79" fill="none" xmlns="http://www.w3.org/2000/svg">
<path fill-rule="evenodd" clip-rule="evenodd" d="M50 29C50 40.598 40.598 50 29 50C17.402 50 8 40.598 8 29C8 17.402 17.402 8 29 8C40.598 8 50 17.402 50 29ZM44.979 53.2045C40.3973 56.2353 34.9047 58 29 58C12.9837 58 0 45.0163 0 29C0 12.9837 12.9837 0 29 0C45.0163 0 58 12.9837 58 29C58 35.8618 55.6168 42.167 51.633 47.133L75.5701 71.0701C77.3275 72.8274 77.3275 75.6767 75.5701 77.434C73.8127 79.1914 70.9635 79.1914 69.2061 77.434L45.066 53.2939C45.0365 53.2644 45.0075 53.2346 44.979 53.2045Z" fill="#FF00D6"/>
</svg>
